<svg width="32" height="32" viewBox="0 0 32 32" fill="none" xmlns="http://www.w3.org/2000/svg">
<path d="M5.99511 28.5993H0.144471C0.125116 28.6012 0.105591 28.5987 0.0872921 28.5921C0.0689937 28.5856 0.0523751 28.575 0.0386266 28.5613C0.024878 28.5476 0.0143396 28.5309 0.00776593 28.5127C0.00119229 28.4944 -0.00125391 28.4748 0.000602496 28.4555V15.8V3.14442C-0.00125391 3.12507 0.00119229 3.10555 0.00776593 3.08726C0.0143396 3.06897 0.024878 3.05235 0.0386266 3.03861C0.0523751 3.02487 0.0689937 3.01433 0.0872921 3.00776C0.105591 3.00119 0.125116 2.99875 0.144471 3.0006H5.99511C6.01447 2.99875 6.03399 3.00119 6.05229 3.00776C6.07059 3.01433 6.08721 3.02487 6.10096 3.03861C6.11471 3.05235 6.12525 3.06897 6.13182 3.08726C6.13839 3.10555 6.14084 3.12507 6.13898 3.14442V3.71967C6.14084 3.73901 6.13839 3.75853 6.13182 3.77682C6.12525 3.79512 6.11471 3.81173 6.10096 3.82547C6.08721 3.83921 6.07059 3.84975 6.05229 3.85632C6.03399 3.86289 6.01447 3.86534 5.99511 3.86348L1.55918 4.19904C1.53982 4.19719 1.5203 4.19963 1.502 4.2062C1.4837 4.21278 1.46708 4.22331 1.45333 4.23705C1.43958 4.2508 1.42904 4.26741 1.42247 4.2857C1.4159 4.30399 1.41345 4.32351 1.41531 4.34286C1.58315 7.44682 1.72702 13.0316 1.72702 15.4764C1.72702 17.9212 1.58315 23.9613 1.41531 27.1013C1.41345 27.1206 1.4159 27.1401 1.42247 27.1584C1.42904 27.1767 1.43958 27.1933 1.45333 27.2071C1.46708 27.2208 1.4837 27.2313 1.502 27.2379C1.5203 27.2445 1.53982 27.2469 1.55918 27.2451L5.99511 27.6525C6.01447 27.6507 6.03399 27.6531 6.05229 27.6597C6.07059 27.6663 6.08721 27.6768 6.10096 27.6905C6.11471 27.7043 6.12525 27.7209 6.13182 27.7392C6.13839 27.7575 6.14084 27.777 6.13898 27.7964V28.4555C6.14084 28.4748 6.13839 28.4944 6.13182 28.5127C6.12525 28.5309 6.11471 28.5476 6.10096 28.5613C6.08721 28.575 6.07059 28.5856 6.05229 28.5921C6.03399 28.5987 6.01447 28.6012 5.99511 28.5993Z" fill="white"/>
<path d="M16.5455 14.1941C16.5261 14.196 16.5066 14.1935 16.4883 14.187C16.47 14.1804 16.4534 14.1699 16.4397 14.1561C16.4259 14.1424 16.4154 14.1258 16.4088 14.1075C16.4022 14.0892 16.3998 14.0697 16.4016 14.0503V13.4511C16.3998 13.4318 16.4022 13.4122 16.4088 13.3939C16.4154 13.3756 16.4259 13.359 16.4397 13.3453C16.4534 13.3316 16.47 13.321 16.4883 13.3144C16.5066 13.3079 16.5261 13.3054 16.5455 13.3073C20.1422 13.0197 21.1493 11.3179 21.1493 8.76519C21.1493 5.16987 18.8234 4.13921 14.8431 4.10326C14.8237 4.1014 14.8042 4.10385 14.7859 4.11042C14.7676 4.11699 14.751 4.12752 14.7372 4.14127C14.7235 4.15501 14.7129 4.17162 14.7064 4.18991C14.6998 4.2082 14.6973 4.22772 14.6992 4.24707V17.7535C14.6817 18.6093 14.7097 19.4654 14.7831 20.3182C14.867 21.0972 15.2747 21.6125 16.7373 21.6365H18.3199C18.3392 21.6346 18.3588 21.637 18.3771 21.6436C18.3954 21.6502 18.412 21.6607 18.4257 21.6745C18.4395 21.6882 18.45 21.7048 18.4566 21.7231C18.4632 21.7414 18.4656 21.7609 18.4637 21.7803V22.4394C18.4656 22.4588 18.4632 22.4783 18.4566 22.4966C18.45 22.5149 18.4395 22.5315 18.4257 22.5452C18.412 22.559 18.3954 22.5695 18.3771 22.5761C18.3588 22.5826 18.3392 22.5851 18.3199 22.5832C17.2289 22.5832 15.0109 22.5832 13.2845 22.5832C11.7859 22.5832 10.1434 22.5832 9.13628 22.5832C9.11693 22.5851 9.09741 22.5826 9.07911 22.5761C9.06081 22.5695 9.04419 22.559 9.03044 22.5452C9.01669 22.5315 9.00615 22.5149 8.99958 22.4966C8.99301 22.4783 8.99056 22.4588 8.99242 22.4394V21.8162C8.99056 21.7969 8.99301 21.7774 8.99958 21.7591C9.00615 21.7408 9.01669 21.7242 9.03044 21.7104C9.04419 21.6967 9.06081 21.6861 9.07911 21.6796C9.09741 21.673 9.11693 21.6706 9.13628 21.6724H10.0834C11.5461 21.6724 11.606 21.3009 11.7259 20.474C11.8265 19.5748 11.8665 18.67 11.8458 17.7655V7.86636C11.8458 6.79975 11.8458 6.2245 11.7619 5.15789C11.7619 4.35493 11.4142 3.95944 10.0954 3.95944H9.14827C9.12777 3.96169 9.10702 3.95909 9.0877 3.95186C9.06838 3.94463 9.05103 3.93297 9.03703 3.91781C9.02304 3.90266 9.0128 3.88444 9.00713 3.86461C9.00147 3.84478 9.00053 3.8239 9.00441 3.80365V3.1445C9.00255 3.12516 9.005 3.10564 9.01157 3.08735C9.01814 3.06906 9.02868 3.05244 9.04243 3.0387C9.05618 3.02496 9.0728 3.01442 9.09109 3.00785C9.10939 3.00128 9.12892 2.99884 9.14827 3.00069C10.1554 3.00069 11.7978 3.00069 13.2965 3.00069H17.2049C21.3771 3.00069 24.0866 5.07399 24.0866 8.05811C24.0866 11.977 21.0294 14.2181 16.5455 14.1941Z" fill="white"/>
<path d="M31.8555 28.5994H25.9569C25.9376 28.6013 25.918 28.5988 25.8997 28.5922C25.8815 28.5857 25.8648 28.5751 25.8511 28.5614C25.8373 28.5476 25.8268 28.531 25.8202 28.5127C25.8137 28.4945 25.8112 28.4749 25.8131 28.4556V27.7964C25.8112 27.7771 25.8137 27.7576 25.8202 27.7393C25.8268 27.721 25.8373 27.7044 25.8511 27.6906C25.8648 27.6769 25.8815 27.6664 25.8997 27.6598C25.918 27.6532 25.9376 27.6508 25.9569 27.6526L30.4408 27.2811C30.4602 27.283 30.4797 27.2805 30.498 27.2739C30.5163 27.2674 30.5329 27.2568 30.5467 27.2431C30.5604 27.2294 30.571 27.2127 30.5775 27.1945C30.5841 27.1762 30.5865 27.1566 30.5847 27.1373C30.4168 23.9974 30.273 17.8494 30.273 15.5124C30.273 13.1755 30.4168 7.48286 30.5847 4.3789C30.5935 4.35717 30.5964 4.33347 30.5931 4.31025C30.5897 4.28703 30.5802 4.26513 30.5655 4.24681C30.5509 4.22848 30.5316 4.21441 30.5097 4.20603C30.4877 4.19764 30.464 4.19527 30.4408 4.19913L25.9569 3.86357C25.9376 3.86542 25.918 3.86298 25.8997 3.85641C25.8815 3.84984 25.8648 3.8393 25.8511 3.82556C25.8373 3.81182 25.8268 3.7952 25.8202 3.77691C25.8137 3.75862 25.8112 3.7391 25.8131 3.71976V3.1445C25.8112 3.12516 25.8137 3.10564 25.8202 3.08735C25.8268 3.06906 25.8373 3.05244 25.8511 3.0387C25.8648 3.02496 25.8815 3.01442 25.8997 3.00785C25.918 3.00128 25.9376 2.99884 25.9569 3.00069H31.8555C31.8749 2.99884 31.8944 3.00128 31.9127 3.00785C31.931 3.01442 31.9476 3.02496 31.9614 3.0387C31.9751 3.05244 31.9857 3.06906 31.9922 3.08735C31.9988 3.10564 32.0013 3.12516 31.9994 3.1445V28.4556C32.0013 28.4749 31.9988 28.4945 31.9922 28.5127C31.9857 28.531 31.9751 28.5476 31.9614 28.5614C31.9476 28.5751 31.931 28.5857 31.9127 28.5922C31.8944 28.5988 31.8749 28.6013 31.8555 28.5994Z" fill="white"/>
</svg>
