<svg width="1000" height="1000" viewBox="0 0 1000 1000" fill="none" xmlns="http://www.w3.org/2000/svg">
<rect width="1000" height="1000" fill="black"/>
<path d="M310.532 741.987H199.736C199.369 742.022 199 741.976 198.653 741.851C198.307 741.727 197.992 741.527 197.731 741.267C197.471 741.006 197.272 740.692 197.147 740.345C197.023 739.999 196.976 739.629 197.011 739.262V259.736C196.976 259.369 197.023 259 197.147 258.653C197.272 258.307 197.471 257.992 197.731 257.732C197.992 257.471 198.307 257.272 198.653 257.147C199 257.023 199.369 256.976 199.736 257.011H310.532C310.899 256.976 311.269 257.023 311.615 257.147C311.962 257.272 312.277 257.471 312.537 257.732C312.797 257.992 312.997 258.307 313.121 258.653C313.246 259 313.292 259.369 313.257 259.736V270.634C313.292 271.001 313.246 271.371 313.121 271.717C312.997 272.064 312.797 272.378 312.537 272.639C312.277 272.899 311.962 273.099 311.615 273.223C311.269 273.348 310.899 273.394 310.532 273.359L226.527 279.716C226.16 279.681 225.791 279.727 225.444 279.852C225.098 279.976 224.783 280.176 224.522 280.436C224.262 280.697 224.063 281.011 223.938 281.358C223.814 281.705 223.767 282.074 223.802 282.441C226.981 341.246 229.705 447.051 229.705 493.369C229.705 539.687 226.981 654.119 223.802 713.606C223.767 713.972 223.814 714.342 223.938 714.689C224.063 715.035 224.262 715.35 224.522 715.61C224.783 715.871 225.098 716.07 225.444 716.195C225.791 716.319 226.16 716.366 226.527 716.33L310.532 724.05C310.899 724.015 311.269 724.061 311.615 724.186C311.962 724.31 312.277 724.51 312.537 724.77C312.797 725.03 312.997 725.345 313.121 725.692C313.246 726.038 313.292 726.408 313.257 726.775V739.262C313.292 739.629 313.246 739.999 313.121 740.345C312.997 740.692 312.797 741.006 312.537 741.267C312.277 741.527 311.962 741.727 311.615 741.851C311.269 741.976 310.899 742.022 310.532 741.987Z" fill="white"/>
<path d="M510.33 469.076C509.964 469.111 509.594 469.065 509.248 468.941C508.901 468.816 508.586 468.617 508.326 468.356C508.066 468.096 507.866 467.781 507.742 467.435C507.617 467.088 507.571 466.718 507.606 466.352V454.999C507.571 454.633 507.617 454.263 507.742 453.916C507.866 453.57 508.066 453.255 508.326 452.995C508.586 452.734 508.901 452.535 509.248 452.41C509.594 452.286 509.964 452.24 510.33 452.275C578.443 446.826 597.515 414.585 597.515 366.223C597.515 298.109 553.468 278.583 478.09 277.902C477.724 277.866 477.354 277.913 477.008 278.037C476.661 278.162 476.346 278.361 476.086 278.622C475.826 278.882 475.626 279.197 475.502 279.543C475.377 279.89 475.331 280.26 475.366 280.626V536.51C475.035 552.723 475.566 568.941 476.955 585.098C478.545 599.856 486.264 609.619 513.963 610.073H543.933C544.299 610.038 544.669 610.085 545.016 610.209C545.362 610.334 545.677 610.533 545.937 610.794C546.197 611.054 546.397 611.369 546.522 611.715C546.646 612.062 546.692 612.431 546.657 612.798V625.286C546.692 625.652 546.646 626.022 546.522 626.368C546.397 626.715 546.197 627.03 545.937 627.29C545.677 627.551 545.362 627.75 545.016 627.875C544.669 627.999 544.299 628.045 543.933 628.01C523.272 628.01 481.269 628.01 448.575 628.01C420.195 628.01 389.09 628.01 370.018 628.01C369.652 628.045 369.282 627.999 368.936 627.875C368.589 627.75 368.274 627.551 368.014 627.29C367.754 627.03 367.554 626.715 367.43 626.368C367.305 626.022 367.259 625.652 367.294 625.286V613.479C367.259 613.113 367.305 612.743 367.43 612.396C367.554 612.05 367.754 611.735 368.014 611.475C368.274 611.214 368.589 611.015 368.936 610.89C369.282 610.766 369.652 610.719 370.018 610.755H387.955C415.654 610.755 416.789 603.716 419.059 588.05C420.964 571.015 421.722 553.873 421.33 536.737V349.195C421.33 328.987 421.33 318.089 419.741 297.882C419.741 282.67 413.156 275.177 388.182 275.177H370.245C369.857 275.219 369.464 275.17 369.098 275.033C368.732 274.896 368.404 274.675 368.139 274.388C367.874 274.101 367.68 273.756 367.573 273.38C367.465 273.005 367.448 272.609 367.521 272.225V259.738C367.486 259.371 367.532 259.001 367.657 258.655C367.781 258.308 367.981 257.994 368.241 257.733C368.501 257.473 368.816 257.273 369.163 257.149C369.509 257.024 369.879 256.978 370.245 257.013C389.317 257.013 420.422 257.013 448.802 257.013H522.818C601.828 257.013 653.14 296.292 653.14 352.828C653.14 427.072 595.244 469.53 510.33 469.076Z" fill="white"/>
<path d="M800.264 741.989H688.559C688.193 742.024 687.823 741.977 687.476 741.853C687.13 741.728 686.815 741.529 686.555 741.268C686.295 741.008 686.095 740.693 685.97 740.347C685.846 740 685.8 739.63 685.835 739.264V726.776C685.8 726.41 685.846 726.04 685.97 725.693C686.095 725.347 686.295 725.032 686.555 724.772C686.815 724.511 687.13 724.312 687.476 724.187C687.823 724.063 688.193 724.017 688.559 724.052L773.473 717.013C773.84 717.048 774.209 717.002 774.556 716.878C774.902 716.753 775.217 716.554 775.478 716.293C775.738 716.033 775.937 715.718 776.062 715.371C776.186 715.025 776.233 714.655 776.198 714.289C773.019 654.802 770.294 538.326 770.294 494.052C770.294 449.777 773.019 341.929 776.198 283.124C776.365 282.712 776.42 282.263 776.356 281.823C776.293 281.383 776.113 280.968 775.835 280.621C775.557 280.274 775.192 280.007 774.777 279.849C774.362 279.69 773.911 279.645 773.473 279.718L688.559 273.361C688.193 273.396 687.823 273.349 687.476 273.225C687.13 273.1 686.815 272.901 686.555 272.64C686.295 272.38 686.095 272.065 685.97 271.719C685.846 271.372 685.8 271.003 685.835 270.636V259.738C685.8 259.371 685.846 259.001 685.97 258.655C686.095 258.308 686.295 257.994 686.555 257.733C686.815 257.473 687.13 257.273 687.476 257.149C687.823 257.024 688.193 256.978 688.559 257.013H800.264C800.631 256.978 801 257.024 801.347 257.149C801.693 257.273 802.008 257.473 802.268 257.733C802.529 257.994 802.728 258.308 802.853 258.655C802.977 259.001 803.024 259.371 802.989 259.738V739.264C803.024 739.63 802.977 740 802.853 740.347C802.728 740.693 802.529 741.008 802.268 741.268C802.008 741.529 801.693 741.728 801.347 741.853C801 741.977 800.631 742.024 800.264 741.989Z" fill="white"/>
</svg>
